<?xml version="1.0" standalone="no"?>
<!DOCTYPE svg PUBLIC "-//W3C//DTD SVG 20010904//EN"
 "http://www.w3.org/TR/2001/REC-SVG-20010904/DTD/svg10.dtd">
<svg version="1.0" xmlns="http://www.w3.org/2000/svg"
 width="512.000000pt" height="512.000000pt" viewBox="0 0 512.000000 512.000000"
 preserveAspectRatio="xMidYMid meet">
<metadata>
Created by potrace 1.14, written by Peter Selinger 2001-2017
</metadata>
<g transform="translate(0.000000,512.000000) scale(0.100000,-0.100000)"
fill="#000000" stroke="none">
<path d="M0 2560 l0 -2560 2560 0 2560 0 0 2560 0 2560 -2560 0 -2560 0 0
-2560z m3988 1043 l-3 -378 -137 -3 -138 -3 0 -209 0 -210 140 0 140 0 0 -300
0 -300 -140 0 -140 0 0 -215 0 -215 140 0 140 0 0 -325 0 -325 -342 0 -343 0
3 135 4 135 -191 0 -191 0 0 -135 0 -135 -350 0 -350 0 0 125 0 125 -47 0
c-27 0 -112 3 -190 7 l-143 6 0 -131 0 -132 -350 0 -350 0 0 325 0 325 140 0
140 0 0 215 0 215 -142 0 -141 0 6 173 c4 94 7 229 7 300 l0 127 135 0 135 0
0 215 0 215 -140 0 -140 0 0 368 c0 203 3 372 7 375 3 4 642 7 1420 7 l1413 0
-2 -377z"/>
<path d="M1653 3222 l-93 -3 0 -209 0 -210 145 0 145 0 0 -110 0 -110 190 0
190 0 0 110 0 110 140 0 140 0 0 216 0 216 -382 -4 c-211 -2 -425 -4 -475 -6z"/>
<path d="M2640 3015 l0 -215 145 0 145 0 0 -115 0 -115 185 0 185 0 0 69 c0
37 3 89 6 115 l7 46 128 0 129 0 0 215 0 215 -465 0 -465 0 0 -215z"/>
<path d="M1850 2325 l0 -125 -145 0 -145 0 0 -215 0 -215 145 0 145 0 0 -124
0 -125 103 -3 c56 -2 141 -2 190 0 l87 3 0 124 0 125 135 0 c74 0 135 1 136 3
0 1 3 95 6 210 l5 207 -53 1 c-30 1 -58 2 -64 4 -5 1 -45 3 -87 3 l-78 2 0
125 0 125 -190 0 -190 0 0 -125z"/>
<path d="M2930 2325 l0 -125 -145 0 -145 0 0 -215 0 -215 145 0 145 0 0 -140
0 -140 190 0 190 0 0 140 0 140 130 0 130 0 0 215 0 215 -129 0 -129 0 -7 60
c-4 32 -5 88 -3 122 l3 63 -187 3 -188 2 0 -125z"/>
</g>
</svg>
